<svg width="291" height="291" viewBox="0 0 291 291" fill="none" xmlns="http://www.w3.org/2000/svg">
<path d="M145.059 0C64.9255 0 0 64.9255 0 145.059C0 225.192 64.9255 290.118 145.059 290.118C225.192 290.118 290.118 225.192 290.118 145.059C290.118 64.9255 225.192 0 145.059 0ZM145.059 56.1518C173.486 56.1518 196.531 79.1974 196.531 107.624C196.531 136.051 173.486 159.097 145.059 159.097C116.632 159.097 93.5863 136.051 93.5863 107.624C93.5863 79.1974 116.632 56.1518 145.059 56.1518ZM145.059 257.362C110.724 257.362 79.9578 241.804 59.3688 217.471C70.3652 196.765 91.8901 182.493 116.983 182.493C118.387 182.493 119.791 182.727 121.136 183.137C128.74 185.593 136.695 187.173 145.059 187.173C153.423 187.173 161.436 185.593 168.982 183.137C170.327 182.727 171.731 182.493 173.135 182.493C198.228 182.493 219.752 196.765 230.749 217.471C210.16 241.804 179.393 257.362 145.059 257.362Z" fill="#34e9d0"/>
</svg>
