<svg width="291" height="291" viewBox="0 0 291 291" fill="none" xmlns="http://www.w3.org/2000/svg">
<path d="M196.863 88.925C188.381 36.6815 168.372 0 145.088 0C121.804 0 101.796 36.6815 93.3127 88.925H196.863ZM88.925 145.088C88.925 158.076 89.627 170.537 90.8556 182.53H199.262C200.491 170.537 201.193 158.076 201.193 145.088C201.193 132.1 200.491 119.639 199.262 107.646H90.8556C89.627 119.639 88.925 132.1 88.925 145.088ZM278.885 88.925C262.153 49.2012 228.28 18.487 186.45 6.08434C200.725 25.8584 210.553 55.6366 215.702 88.925H278.885ZM103.668 6.08434C61.8965 18.487 27.9646 49.2012 11.2911 88.925H74.4747C79.5644 55.6366 89.393 25.8584 103.668 6.08434ZM285.145 107.646H218.042C219.27 119.932 219.972 132.51 219.972 145.088C219.972 157.666 219.27 170.244 218.042 182.53H285.086C288.304 170.537 290.118 158.076 290.118 145.088C290.118 132.1 288.304 119.639 285.145 107.646ZM70.2039 145.088C70.2039 132.51 70.906 119.932 72.1345 107.646H5.03128C1.8721 119.639 0 132.1 0 145.088C0 158.076 1.8721 170.537 5.03128 182.53H72.076C70.906 170.244 70.2039 157.666 70.2039 145.088V145.088ZM93.3127 201.251C101.796 253.495 121.804 290.176 145.088 290.176C168.372 290.176 188.381 253.495 196.863 201.251H93.3127ZM186.508 284.092C228.28 271.689 262.212 240.975 278.944 201.251H215.76C210.612 234.54 200.783 264.318 186.508 284.092ZM11.2911 201.251C28.0231 240.975 61.8965 271.689 103.726 284.092C89.4515 264.318 79.6229 234.54 74.4747 201.251H11.2911Z" fill="#34e9d0"/>
</svg>
