<svg width="291" height="258" viewBox="0 0 291 258" fill="none" xmlns="http://www.w3.org/2000/svg">
<path d="M266.002 151.767L289.812 47.0026C291.531 39.4384 285.782 32.2353 278.024 32.2353H80.1893L75.5727 9.66556C74.4223 4.03999 69.4721 0 63.7297 0H12.0882C5.41201 0 0 5.41201 0 12.0882V20.1471C0 26.8233 5.41201 32.2353 12.0882 32.2353H47.2867L82.669 205.215C74.2042 210.084 68.5 219.211 68.5 229.677C68.5 245.254 81.1282 257.882 96.7059 257.882C112.284 257.882 124.912 245.254 124.912 229.677C124.912 221.782 121.665 214.649 116.438 209.529H222.032C216.806 214.649 213.559 221.782 213.559 229.677C213.559 245.254 226.187 257.882 241.765 257.882C257.343 257.882 269.971 245.254 269.971 229.677C269.971 218.509 263.479 208.859 254.065 204.289L256.844 192.061C258.563 184.497 252.813 177.294 245.056 177.294H109.86L106.564 161.177H254.214C259.858 161.177 264.751 157.271 266.002 151.767Z" fill="#34e9d0"/>
</svg>
